<svg width="18" height="18" viewBox="0 0 18 18" fill="none" xmlns="http://www.w3.org/2000/svg">
<g filter="url(#filter0_i_43_144999)">
<rect width="18" height="18" rx="3" fill="url(#paint0_radial_43_144999)"/>
</g>
<path d="M13.0552 10.3232V5.46637L10.5893 7.94516C11.4896 7.04006 13.0351 7.67094 13.0448 8.94754L13.0552 10.3232Z" fill="#013F16"/>
<path d="M13.0552 5.46637L9.81738 5.46637L8.19845 5.46637L9.56606 5.47132C10.8541 5.47599 11.4977 7.03196 10.5893 7.94516L13.0552 5.46637Z" fill="#013F16"/>
<path d="M5.98786 12.5338L10.5893 7.94516M13.0552 5.46637L9.81738 5.46637L8.19845 5.46637M13.0552 5.46637L13.0552 10.3232M13.0552 5.46637L10.5893 7.94516M6.57953 5.46637L8.19845 5.46637M13.0552 11.9421L13.0552 10.3232M8.19845 5.46637L9.56606 5.47132C10.8541 5.47599 11.4977 7.03196 10.5893 7.94516V7.94516M13.0552 10.3232L13.0448 8.94754C13.0351 7.67094 11.4896 7.04006 10.5893 7.94516V7.94516" stroke="#013F16" stroke-linecap="round" stroke-linejoin="round"/>
<defs>
<filter id="filter0_i_43_144999" x="0" y="0" width="18" height="20" filterUnits="userSpaceOnUse" color-interpolation-filters="sRGB">
<feFlood flood-opacity="0" result="BackgroundImageFix"/>
<feBlend mode="normal" in="SourceGraphic" in2="BackgroundImageFix" result="shape"/>
<feColorMatrix in="SourceAlpha" type="matrix" values="0 0 0 0 0 0 0 0 0 0 0 0 0 0 0 0 0 0 127 0" result="hardAlpha"/>
<feOffset dy="2"/>
<feGaussianBlur stdDeviation="2"/>
<feComposite in2="hardAlpha" operator="arithmetic" k2="-1" k3="1"/>
<feColorMatrix type="matrix" values="0 0 0 0 0.739128 0 0 0 0 1 0 0 0 0 0.812172 0 0 0 1 0"/>
<feBlend mode="normal" in2="shape" result="effect1_innerShadow_43_144999"/>
</filter>
<radialGradient id="paint0_radial_43_144999" cx="0" cy="0" r="1" gradientUnits="userSpaceOnUse" gradientTransform="translate(9) rotate(90) scale(18)">
<stop offset="0.291563" stop-color="#91FF5D"/>
<stop offset="0.918784" stop-color="#00A237"/>
</radialGradient>
</defs>
</svg>
