<svg width="16.000000" height="16.000000" viewBox="0 0 16 16" fill="none" xmlns="http://www.w3.org/2000/svg" xmlns:xlink="http://www.w3.org/1999/xlink">
	<defs/>
	<path id="Vector 8" d="M1.69 1.17L1.67 1.19C1.25 1.19 0.92 0.86 0.92 0.44C0.92 0.02 1.25 -0.31 1.67 -0.31L1.69 -0.29L1.69 1.17ZM14.55 0.44L8.11 0.44L4.89 0.44L7.61 0.45C10.17 0.46 11.45 3.55 9.65 5.37C11.44 3.57 14.51 4.82 14.53 7.36L14.55 10.1L14.55 0.44ZM1.02 15.03L1.02 15L-0.01 13.97L-0.04 13.97C-0.33 14.26 -0.33 14.73 -0.04 15.03C0.26 15.32 0.73 15.32 1.02 15.03ZM15.3 13.32L15.28 13.3L13.82 13.3L13.8 13.32C13.8 13.74 14.13 14.07 14.55 14.07C14.97 14.07 15.3 13.74 15.3 13.32Z" fill="#000000" fill-opacity="1.000000" fill-rule="evenodd"/>
	<path id="Vector 8" d="M14.55 13.32L14.55 10.1L14.55 0.44L8.11 0.44L4.89 0.44L1.67 0.44M9.65 5.37L14.55 0.44M0.49 14.5L9.65 5.37C11.46 3.56 10.17 0.46 7.61 0.45L4.89 0.44M14.55 10.1L14.53 7.36C14.51 4.82 11.44 3.57 9.65 5.37" stroke="#91FF5D" stroke-opacity="1.000000" stroke-width="1.500000" stroke-linejoin="round"/>
</svg>
