<svg width="16.000000" height="16.000000" viewBox="0 0 16 16" fill="none" xmlns="http://www.w3.org/2000/svg" xmlns:xlink="http://www.w3.org/1999/xlink">
	<defs/>
	<path id="Vector 8" d="M13.3 13.82L13.32 13.8C13.74 13.8 14.07 14.13 14.07 14.55C14.07 14.97 13.74 15.3 13.32 15.3L13.3 15.28L13.3 13.82ZM0.44 14.55L6.88 14.55L10.1 14.55L7.38 14.54C4.82 14.53 3.54 11.44 5.34 9.62C3.55 11.42 0.48 10.17 0.46 7.63L0.44 4.89L0.44 14.55ZM13.97 -0.04L13.97 -0.01L15 1.02L15.03 1.02C15.32 0.73 15.32 0.26 15.03 -0.04C14.73 -0.33 14.26 -0.33 13.97 -0.04ZM-0.31 1.67L-0.29 1.69L1.17 1.69L1.19 1.67C1.19 1.25 0.86 0.92 0.44 0.92C0.02 0.92 -0.31 1.25 -0.31 1.67Z" fill="#000000" fill-opacity="1.000000" fill-rule="evenodd"/>
	<path id="Vector 8" d="M0.44 1.67L0.44 4.89L0.44 14.55L6.88 14.55L10.1 14.55L13.32 14.55M5.34 9.62L0.44 14.55M14.5 0.49L5.34 9.62C3.53 11.43 4.82 14.53 7.38 14.54L10.1 14.55M0.44 4.89L0.46 7.63C0.48 10.17 3.55 11.42 5.34 9.62" stroke="#FF3232" stroke-opacity="1.000000" stroke-width="1.500000" stroke-linejoin="round"/>
</svg>
