<svg width="17.000000" height="16.000000" viewBox="0 0 17 16" fill="none" xmlns="http://www.w3.org/2000/svg" xmlns:xlink="http://www.w3.org/1999/xlink">
	<defs/>
	<path id="Vector 8" d="M13.8 13.57L13.82 13.55C14.38 13.55 14.82 13.99 14.82 14.55C14.82 15.11 14.38 15.55 13.82 15.55L13.8 15.53L13.8 13.57ZM0.94 14.55L7.38 14.55L10.6 14.55L7.88 14.54C5.32 14.53 4.04 11.44 5.84 9.62C4.05 11.42 0.98 10.17 0.96 7.63L0.94 4.89L0.94 14.55ZM14.29 -0.21L14.29 -0.19L15.67 1.2L15.7 1.2C16.1 0.81 16.1 0.18 15.7 -0.21C15.31 -0.61 14.69 -0.61 14.29 -0.21ZM-0.06 1.67L-0.04 1.69L1.92 1.69L1.94 1.67C1.94 1.11 1.5 0.67 0.94 0.67C0.38 0.67 -0.06 1.11 -0.06 1.67Z" fill="#000000" fill-opacity="1.000000" fill-rule="evenodd"/>
	<path id="Vector 8" d="M0.94 1.67L0.94 4.89L0.94 14.55L7.38 14.55L10.6 14.55L13.82 14.55M5.84 9.62L0.94 14.55M15 0.49L5.84 9.62C4.03 11.43 5.32 14.53 7.88 14.54L10.6 14.55M0.94 4.89L0.96 7.63C0.98 10.17 4.05 11.42 5.84 9.62" stroke="#3F0101" stroke-opacity="1.000000" stroke-width="2.000000" stroke-linejoin="round"/>
</svg>