<svg width="17.000000" height="16.000000" viewBox="0 0 17 16" fill="none" xmlns="http://www.w3.org/2000/svg" xmlns:xlink="http://www.w3.org/1999/xlink">
	<desc>
			Created with Pixso.
	</desc>
	<defs/>
	<path id="Vector 8" d="M2.19 1.42L2.17 1.44C1.61 1.44 1.17 1 1.17 0.44C1.17 -0.12 1.61 -0.56 2.17 -0.56L2.19 -0.54L2.19 1.42ZM15.05 0.44L8.61 0.44L5.39 0.44L8.11 0.45C10.67 0.46 11.95 3.55 10.15 5.37C11.94 3.57 15.01 4.82 15.03 7.36L15.05 10.1L15.05 0.44ZM1.7 15.2L1.7 15.18L0.32 13.79L0.29 13.79C-0.11 14.18 -0.11 14.81 0.29 15.2C0.68 15.6 1.3 15.6 1.7 15.2ZM16.05 13.32L16.03 13.3L14.07 13.3L14.05 13.32C14.05 13.88 14.49 14.32 15.05 14.32C15.61 14.32 16.05 13.88 16.05 13.32Z" fill="#000000" fill-opacity="1.000000" fill-rule="evenodd"/>
	<path id="Vector 8" d="M15.05 13.32L15.05 10.1L15.05 0.44L8.61 0.44L5.39 0.44L2.17 0.44M10.15 5.37L15.05 0.44M0.99 14.5L10.15 5.37C11.96 3.56 10.67 0.46 8.11 0.45L5.39 0.44M15.05 10.1L15.03 7.36C15.01 4.82 11.94 3.57 10.15 5.37" stroke="#013F16" stroke-opacity="1.000000" stroke-width="2.000000" stroke-linejoin="round"/>
</svg>
