<svg width="18.000000" height="18.000000" viewBox="0 0 18 18" fill="none" xmlns="http://www.w3.org/2000/svg" xmlns:xlink="http://www.w3.org/1999/xlink">
	<desc>
			Created with Pixso.
	</desc>
	<defs>
		<filter id="filter_43_145008_dd" x="0.000000" y="0.000000" width="18.000000" height="18.000000" filterUnits="userSpaceOnUse" color-interpolation-filters="sRGB">
			<feFlood flood-opacity="0" result="BackgroundImageFix"/>
			<feBlend mode="normal" in="SourceGraphic" in2="BackgroundImageFix" result="shape"/>
			<feColorMatrix in="SourceAlpha" type="matrix" values="0 0 0 0 0 0 0 0 0 0 0 0 0 0 0 0 0 0 127 0" result="hardAlpha"/>
			<feOffset dx="0" dy="2"/>
			<feGaussianBlur stdDeviation="1.33333"/>
			<feComposite in2="hardAlpha" operator="arithmetic" k2="-1" k3="1"/>
			<feColorMatrix type="matrix" values="0 0 0 0 1 0 0 0 0 0.73725 0 0 0 0 0.73725 0 0 0 1 0"/>
			<feBlend mode="normal" in2="shape" result="effect_innerShadow_1"/>
		</filter>
		<radialGradient id="paint_radial_43_145008_0" cx="0.000000" cy="0.000000" r="1.000000" gradientUnits="userSpaceOnUse" gradientTransform="translate(9 0) rotate(90) scale(18 18)">
			<stop offset="0.291563" stop-color="#FF5D5D"/>
			<stop offset="0.918784" stop-color="#A20000"/>
		</radialGradient>
	</defs>
	<g filter="url(#filter_43_145008_dd)">
		<rect id="Rectangle 20" rx="3.000000" width="18.000000" height="18.000000" fill="url(#paint_radial_43_145008_0)" fill-opacity="1.000000"/>
	</g>
	<path id="Vector 8" d="M12.69 12.05L12.71 12.03C12.99 12.03 13.21 12.25 13.21 12.53C13.21 12.81 12.99 13.03 12.71 13.03L12.69 13.01L12.69 12.05ZM6.23 12.53L9.47 12.53L11.09 12.53L9.72 12.52C8.43 12.52 7.79 10.96 8.7 10.05C7.8 10.96 6.25 10.32 6.24 9.05L6.23 7.67L6.23 12.53ZM12.95 5.11L12.95 5.14L13.62 5.82L13.65 5.82C13.85 5.62 13.85 5.31 13.65 5.11C13.46 4.91 13.15 4.91 12.95 5.11ZM5.73 6.05L5.75 6.07L6.71 6.07L6.73 6.05C6.73 5.77 6.51 5.55 6.23 5.55C5.95 5.55 5.73 5.77 5.73 6.05Z" fill="#3F0101" fill-opacity="1.000000" fill-rule="evenodd"/>
	<path id="Vector 8" d="M6.23 6.05L6.23 7.67L6.23 12.53L9.47 12.53L11.09 12.53L12.71 12.53M8.7 10.05L6.23 12.53M13.3 5.46L8.7 10.05C7.79 10.96 8.43 12.52 9.72 12.52L11.09 12.53M6.23 7.67L6.24 9.05C6.25 10.32 7.8 10.95 8.7 10.05" stroke="#3F0101" stroke-opacity="1.000000" stroke-width="1.000000" stroke-linejoin="round"/>
</svg>

