<svg width="2339.000000" height="264.000000" viewBox="0 0 2339 264" fill="none" xmlns="http://www.w3.org/2000/svg" xmlns:xlink="http://www.w3.org/1999/xlink">
    <defs>
        <linearGradient id="paint_linear_43_113083_0" x1="208.999939" y1="132.000122" x2="2130.000000" y2="132.000122" gradientUnits="userSpaceOnUse">
            <stop offset="0.051894" stop-color="#FFFFFF" stop-opacity="0.000000"/>
            <stop offset="0.175000" stop-color="#FFFFFF"/>
            <stop offset="0.740496" stop-color="#FFFFFF"/>
            <stop offset="0.839187" stop-color="#FFFFFF" stop-opacity="0.239216"/>
            <stop offset="1.000000" stop-color="#FFFFFF" stop-opacity="0.000000"/>
        </linearGradient>
    </defs>
    <g opacity="0.020000">
        <path id="Vector" d="M0 9.78L16.94 0L163.67 254.14L146.73 263.92L0 9.78ZM47.27 9.78L64.21 0L210.94 254.14L194 263.92L47.27 9.78ZM94.54 9.78L111.49 0L258.22 254.14L241.27 263.92L94.54 9.78ZM141.82 9.78L158.76 0L305.49 254.14L288.54 263.92L141.82 9.78ZM189.09 9.78L206.03 0L352.76 254.14L335.82 263.92L189.09 9.78ZM236.36 9.78L253.31 0L400.04 254.14L383.09 263.92L236.36 9.78ZM283.64 9.78L300.58 0L447.31 254.14L430.37 263.92L283.64 9.78ZM330.91 9.78L347.85 0L494.58 254.14L477.64 263.92L330.91 9.78ZM378.18 9.78L395.13 0L541.86 254.14L524.91 263.92L378.18 9.78ZM425.46 9.78L442.4 0L589.13 254.14L572.19 263.92L425.46 9.78ZM472.73 9.78L489.67 0L636.4 254.14L619.46 263.92L472.73 9.78ZM520 9.78L536.95 0L683.68 254.14L666.73 263.92L520 9.78ZM567.28 9.78L584.22 0L730.95 254.14L714.01 263.92L567.28 9.78ZM614.55 9.78L631.49 0L778.22 254.14L761.28 263.92L614.55 9.78ZM661.82 9.78L678.77 0L825.5 254.14L808.55 263.92L661.82 9.78ZM709.1 9.78L726.04 0L872.77 254.14L855.83 263.92L709.1 9.78ZM756.37 9.78L773.31 0L920.04 254.14L903.1 263.92L756.37 9.78ZM803.64 9.78L820.59 0L967.32 254.14L950.37 263.92L803.64 9.78ZM850.92 9.78L867.86 0L1014.59 254.14L997.65 263.92L850.92 9.78ZM898.19 9.78L915.13 0L1061.87 254.14L1044.92 263.92L898.19 9.78ZM945.46 9.78L962.4 0L1109.14 254.14L1092.19 263.92L945.46 9.78ZM992.74 9.78L1009.68 0L1156.41 254.14L1139.47 263.92L992.74 9.78ZM1040.01 9.78L1056.96 0L1203.68 254.14L1186.74 263.92L1040.01 9.78ZM1087.29 9.78L1104.23 0L1250.96 254.14L1234.02 263.92L1087.29 9.78ZM1134.56 9.78L1151.5 0L1298.23 254.14L1281.29 263.92L1134.56 9.78ZM1181.82 9.78L1198.78 0L1345.51 254.14L1328.56 263.92L1181.82 9.78ZM1229.11 9.78L1246.05 0L1392.78 254.14L1375.84 263.92L1229.11 9.78ZM1276.38 9.78L1293.31 0L1440.05 254.14L1423.11 263.92L1276.38 9.78ZM1323.65 9.78L1340.6 0L1487.33 254.14L1470.38 263.92L1323.65 9.78ZM1370.93 9.78L1387.87 0L1534.6 254.14L1517.66 263.92L1370.93 9.78ZM1418.2 9.78L1435.14 0L1581.87 254.14L1564.93 263.92L1418.2 9.78ZM1465.47 9.78L1482.42 0L1629.15 254.14L1612.2 263.92L1465.47 9.78ZM1512.75 9.78L1529.69 0L1676.42 254.14L1659.48 263.92L1512.75 9.78ZM1560.02 9.78L1576.96 0L1723.69 254.14L1706.75 263.92L1560.02 9.78ZM1607.29 9.78L1624.24 0L1770.97 254.14L1754.02 263.92L1607.29 9.78ZM1654.57 9.78L1671.51 0L1818.24 254.14L1801.3 263.92L1654.57 9.78ZM1701.84 9.78L1718.78 0L1865.51 254.14L1848.57 263.92L1701.84 9.78ZM1749.11 9.78L1766.06 0L1912.79 254.14L1895.84 263.92L1749.11 9.78ZM1796.39 9.78L1813.33 0L1960.06 254.14L1943.12 263.92L1796.39 9.78ZM1843.66 9.78L1860.6 0L2007.33 254.14L1990.39 263.92L1843.66 9.78ZM1890.93 9.78L1907.88 0L2054.61 254.14L2037.66 263.92L1890.93 9.78ZM1938.21 9.78L1955.15 0L2101.87 254.14L2084.94 263.92L1938.21 9.78ZM1985.48 9.78L2002.42 0L2149.14 254.14L2132.21 263.92L1985.48 9.78ZM2032.75 9.78L2049.7 0L2196.43 254.14L2179.48 263.92L2032.75 9.78ZM2080.03 9.78L2096.97 0L2243.7 254.14L2226.76 263.92L2080.03 9.78ZM2127.3 9.78L2144.24 0L2290.97 254.14L2274.03 263.92L2127.3 9.78ZM2174.57 9.78L2191.52 0L2338.25 254.14L2321.3 263.92L2174.57 9.78Z" fill="url(#paint_linear_43_113083_0)" fill-opacity="1.000000" fill-rule="evenodd"/>
    </g>
</svg>