<svg width="290.000000" height="90.000000" viewBox="0 0 290 90" fill="none" xmlns="http://www.w3.org/2000/svg" xmlns:xlink="http://www.w3.org/1999/xlink">
	<desc>
			Created with Pixso.
	</desc>
	<defs>
		<filter id="filter_28_51970_dd" x="42.000000" y="0.000000" width="207.000000" height="35.000000" filterUnits="userSpaceOnUse" color-interpolation-filters="sRGB">
			<feFlood flood-opacity="0" result="BackgroundImageFix"/>
			<feGaussianBlur in="BackgroundImage" stdDeviation="13"/>
			<feComposite in2="SourceAlpha" operator="in" result="effect_backgroundBlur_1"/>
			<feColorMatrix in="SourceAlpha" type="matrix" values="0 0 0 0 0 0 0 0 0 0 0 0 0 0 0 0 0 0 127 0" result="hardAlpha"/>
			<feOffset dx="0" dy="0"/>
			<feGaussianBlur stdDeviation="2"/>
			<feComposite in2="hardAlpha" operator="out" k2="-1" k3="1"/>
			<feColorMatrix type="matrix" values="0 0 0 0 0 0 0 0 0 0 0 0 0 0 0 0 0 0 0.5 0"/>
			<feBlend mode="normal" in2="effect_backgroundBlur_1" result="effect_dropShadow_2"/>
			<feBlend mode="normal" in="SourceGraphic" in2="effect_dropShadow_2" result="shape"/>
		</filter>
		<filter id="filter_28_51971_dd" x="0.000000" y="15.000000" width="290.000000" height="75.000000" filterUnits="userSpaceOnUse" color-interpolation-filters="sRGB">
			<feFlood flood-opacity="0" result="BackgroundImageFix"/>
			<feBlend mode="normal" in="SourceGraphic" in2="BackgroundImageFix" result="shape"/>
			<feColorMatrix in="SourceAlpha" type="matrix" values="0 0 0 0 0 0 0 0 0 0 0 0 0 0 0 0 0 0 127 0" result="hardAlpha"/>
			<feOffset dx="0" dy="2"/>
			<feGaussianBlur stdDeviation="1.33333"/>
			<feComposite in2="hardAlpha" operator="arithmetic" k2="-1" k3="1"/>
			<feColorMatrix type="matrix" values="0 0 0 0 0.73725 0 0 0 0 1 0 0 0 0 0.81176 0 0 0 1 0"/>
			<feBlend mode="normal" in2="shape" result="effect_innerShadow_1"/>
		</filter>
		<filter id="filter_28_51972_dd" x="0.000000" y="15.000000" width="290.000000" height="75.000000" filterUnits="userSpaceOnUse" color-interpolation-filters="sRGB">
			<feFlood flood-opacity="0" result="BackgroundImageFix"/>
			<feBlend mode="normal" in="SourceGraphic" in2="BackgroundImageFix" result="shape"/>
			<feColorMatrix in="SourceAlpha" type="matrix" values="0 0 0 0 0 0 0 0 0 0 0 0 0 0 0 0 0 0 127 0" result="hardAlpha"/>
			<feOffset dx="0" dy="2"/>
			<feGaussianBlur stdDeviation="1.33333"/>
			<feComposite in2="hardAlpha" operator="arithmetic" k2="-1" k3="1"/>
			<feColorMatrix type="matrix" values="0 0 0 0 0.73725 0 0 0 0 1 0 0 0 0 0.81176 0 0 0 1 0"/>
			<feBlend mode="normal" in2="shape" result="effect_innerShadow_1"/>
		</filter>
		<radialGradient id="paint_radial_28_51970_0" cx="0.000000" cy="0.000000" r="1.000000" gradientUnits="userSpaceOnUse" gradientTransform="translate(145 11) rotate(90) scale(18 206)">
			<stop offset="0.291563" stop-color="#4B4B4B"/>
			<stop offset="0.918784" stop-color="#060606"/>
		</radialGradient>
		<linearGradient id="paint_linear_28_51970_1" x1="145.999969" y1="5.999994" x2="141.999954" y2="11.499992" gradientUnits="userSpaceOnUse">
			<stop stop-color="#FFFFFF"/>
			<stop offset="0.214902" stop-color="#FFFFFF" stop-opacity="0.000000"/>
		</linearGradient>
		<radialGradient id="paint_radial_28_51971_0" cx="0.000000" cy="0.000000" r="1.000000" gradientUnits="userSpaceOnUse" gradientTransform="translate(145 15) rotate(90) scale(75 290)">
			<stop offset="0.291563" stop-color="#61EE1E"/>
			<stop offset="0.918784" stop-color="#00C844"/>
		</radialGradient>
	</defs>
	<g filter="url(#filter_28_51970_dd)">
		<path id="Rectangle 10" d="M48 16L51.67 13.37C56.74 9.75 59.27 7.94 62.18 6.99C62.26 6.96 62.34 6.94 62.42 6.91C65.34 6 68.46 6 74.69 6L145 6L216.01 6C221.9 6 224.84 6 227.62 6.82C227.7 6.84 227.77 6.86 227.85 6.89C230.62 7.74 233.07 9.38 237.97 12.65L243 16L228 29L62 29L48 16Z" fill="url(#paint_radial_28_51970_0)" fill-opacity="0.200000" fill-rule="nonzero"/>
	</g>
	<path id="Rectangle 10" d="M48.41 15.7L51.67 13.37C56.74 9.75 59.27 7.94 62.18 6.99C62.26 6.96 62.34 6.94 62.42 6.91C65.34 6 68.46 6 74.69 6L216.01 6C221.9 6 224.84 6 227.62 6.82C227.7 6.84 227.77 6.86 227.85 6.89C230.62 7.74 233.07 9.38 237.97 12.65L242.56 15.71L243 16L242.6 16.33L228 29L62 29L48.37 16.34L48 16L48.41 15.7ZM48.78 16.05L51.96 13.78Q59.5 8.39 62.34 7.46L62.46 7.42L62.57 7.39Q65.42 6.5 74.69 6.5L145 6.5L216.01 6.5Q224.77 6.5 227.48 7.3L227.68 7.36L227.7 7.37Q230.4 8.2 237.69 13.06L242.17 16.05L227.81 28.5L62.19 28.5L48.78 16.05Z" fill="url(#paint_linear_28_51970_1)" fill-opacity="0.300000" fill-rule="evenodd"/>
	<g filter="url(#filter_28_51971_dd)">
		<path id="Subtract" d="M244.241 15L275.15 15C282.075 15 285.537 15 287.719 17.114L287.823 17.217C289.938 19.3985 290 22.9248 290 29.85L290 75.15C290 82.0751 290 85.5377 287.886 87.7193C287.831 87.7758 287.776 87.8313 287.719 87.886C285.538 90 282.076 90 275.15 90L14.85 90C7.9248 90 4.46222 90 2.28064 87.886C2.22424 87.8313 2.1687 87.7758 2.11407 87.7193C0 85.5378 0 82.0752 0 75.15L0 29.85C0 22.9248 0 19.4622 2.11407 17.2807C2.1687 17.2243 2.22424 17.1687 2.28064 17.1141C4.46216 15 7.9248 15 14.85 15L45.7586 15C48.8231 15 50.3553 15 51.7959 15.4444C51.8348 15.4564 51.8736 15.4687 51.9124 15.4812C53.3474 15.9432 54.6027 16.8219 57.1132 18.5792L66.8868 25.4208C69.3973 27.1782 70.6526 28.0568 72.0876 28.5188C72.1264 28.5313 72.1652 28.5436 72.2041 28.5556C73.6448 29 75.177 29 78.2414 29L211.759 29C214.823 29 216.355 29 217.796 28.5556C217.835 28.5436 217.874 28.5313 217.912 28.5188C219.347 28.0568 220.603 27.1781 223.113 25.4208L232.887 18.5792C235.397 16.8219 236.653 15.9432 238.088 15.4812C238.126 15.4687 238.165 15.4564 238.204 15.4444C239.645 15 241.177 15 244.241 15Z" clip-rule="evenodd" fill="url(#paint_radial_28_51971_0)" fill-opacity="1.000000" fill-rule="evenodd"/>
	</g>
</svg>
