<svg width="25" height="24" viewBox="0 0 25 24" fill="none" xmlns="http://www.w3.org/2000/svg">
<g clip-path="url(#clip0_1631_105)">
<path d="M20.5 8H17.8334V9.33333H20.5V10.6667H21.8334V9.33333C21.8334 8.97971 21.6929 8.64057 21.4428 8.39052C21.1928 8.14048 20.8537 8 20.5 8Z" fill="white"/>
<path d="M20.5 12H21.8333V16H20.5V12Z" fill="white"/>
<path d="M20.5 20H19.1666V21.3333H20.5C20.8536 21.3333 21.1927 21.1928 21.4428 20.9428C21.6928 20.6927 21.8333 20.3536 21.8333 20V17.3333H20.5V20Z" fill="white"/>
<path d="M16.5 14.6667V4.00002C16.5 3.6464 16.3595 3.30726 16.1094 3.05721C15.8594 2.80716 15.5202 2.66669 15.1666 2.66669H4.49996C4.14634 2.66669 3.8072 2.80716 3.55715 3.05721C3.3071 3.30726 3.16663 3.6464 3.16663 4.00002V14.6667C3.16663 15.0203 3.3071 15.3594 3.55715 15.6095C3.8072 15.8595 4.14634 16 4.49996 16H15.1666C15.5202 16 15.8594 15.8595 16.1094 15.6095C16.3595 15.3594 16.5 15.0203 16.5 14.6667ZM4.49996 4.00002H15.1666V14.6667H4.49996V4.00002Z" fill="white"/>
<path d="M13.8334 20H17.8334V21.3333H13.8334V20Z" fill="white"/>
<path d="M9.83333 17.3333H8.5V20C8.5 20.3536 8.64048 20.6927 8.89052 20.9428C9.14057 21.1928 9.47971 21.3333 9.83333 21.3333H12.5V20H9.83333V17.3333Z" fill="white"/>
</g>
<defs>
<clipPath id="clip0_1631_105">
<rect width="24" height="24" fill="white" transform="translate(0.5)"/>
</clipPath>
</defs>
</svg>
