<svg width="16.000000" height="16.000000" viewBox="0 0 16 16" fill="none" xmlns="http://www.w3.org/2000/svg" xmlns:xlink="http://www.w3.org/1999/xlink">
	<desc>
			Created with Pixso.
	</desc>
	<defs>
		<clipPath id="clip8_1500">
			<rect id="polygon" width="10.659466" height="9.299273" transform="translate(2.621094 2.820190)" fill="white" fill-opacity="0"/>
		</clipPath>
	</defs>
	<rect id="Crypto Logos / Polygon" rx="8.000000" width="16.000000" height="16.000000" transform="translate(0.000000 -0.500000)" fill="#8247E5" fill-opacity="1.000000"/>
	<rect id="polygon" width="10.659466" height="9.299273" transform="translate(2.621094 2.820190)" fill="#FFFFFF" fill-opacity="0"/>
	<g clip-path="url(#clip8_1500)">
		<path id="Vector" d="M10.67 5.65C10.47 5.54 10.22 5.54 10 5.65L8.45 6.56L7.39 7.15L5.86 8.06C5.67 8.17 5.42 8.17 5.2 8.06L4 7.34C3.81 7.23 3.67 7.01 3.67 6.76L3.67 5.37C3.67 5.15 3.78 4.92 4 4.79L5.2 4.09C5.39 3.98 5.64 3.98 5.86 4.09L7.06 4.81C7.25 4.92 7.39 5.15 7.39 5.4L7.39 6.31L8.45 5.7L8.45 4.76C8.45 4.54 8.34 4.31 8.11 4.18L5.89 2.87C5.7 2.76 5.45 2.76 5.23 2.87L2.95 4.2C2.73 4.31 2.62 4.54 2.62 4.76L2.62 7.37C2.62 7.59 2.73 7.81 2.95 7.95L5.2 9.26C5.39 9.37 5.64 9.37 5.86 9.26L7.39 8.37L8.45 7.76L9.97 6.87C10.17 6.76 10.42 6.76 10.64 6.87L11.83 7.56C12.03 7.67 12.17 7.9 12.17 8.14L12.17 9.53C12.17 9.75 12.05 9.98 11.83 10.12L10.67 10.81C10.47 10.92 10.22 10.92 10 10.81L8.81 10.12C8.61 10 8.47 9.78 8.47 9.53L8.47 8.64L7.42 9.26L7.42 10.17C7.42 10.39 7.53 10.62 7.75 10.75L10 12.06C10.2 12.17 10.45 12.17 10.67 12.06L12.92 10.75C13.11 10.64 13.25 10.42 13.25 10.17L13.25 7.53C13.25 7.31 13.14 7.09 12.92 6.95L10.67 5.65Z" fill="#FFFFFF" fill-opacity="1.000000" fill-rule="nonzero"/>
	</g>
</svg>
