<svg width="16.000000" height="16.000000" viewBox="0 0 16 16" fill="none" xmlns="http://www.w3.org/2000/svg" xmlns:xlink="http://www.w3.org/1999/xlink">
	<defs/>
	<path id="Vector" d="M12.44 1.33L11.17 1.33C9.72 1.33 8.95 2.1 8.95 3.55L8.95 4.82C8.95 6.27 9.72 7.04 11.17 7.04L12.44 7.04C13.89 7.04 14.66 6.27 14.66 4.82L14.66 3.55C14.66 2.1 13.89 1.33 12.44 1.33Z" fill="#FFFFFF" fill-opacity="1.000000" fill-rule="nonzero"/>
	<path id="Vector" d="M4.82 8.95L3.55 8.95C2.09 8.95 1.33 9.72 1.33 11.17L1.33 12.44C1.33 13.9 2.09 14.66 3.55 14.66L4.81 14.66C6.27 14.66 7.04 13.9 7.04 12.44L7.04 11.18C7.04 9.72 6.28 8.95 4.82 8.95Z" fill="#FFFFFF" fill-opacity="1.000000" fill-rule="nonzero"/>
	<path id="Vector" d="M7.05 4.19C7.05 5.77 5.77 7.05 4.19 7.05C2.61 7.05 1.33 5.77 1.33 4.19C1.33 2.61 2.61 1.33 4.19 1.33C5.77 1.33 7.05 2.61 7.05 4.19Z" fill="#FFFFFF" fill-opacity="1.000000" fill-rule="evenodd"/>
	<path id="Vector" d="M14.66 11.8C14.66 13.38 13.38 14.66 11.8 14.66C10.22 14.66 8.94 13.38 8.94 11.8C8.94 10.22 10.22 8.94 11.8 8.94C13.38 8.94 14.66 10.22 14.66 11.8Z" fill="#FFFFFF" fill-opacity="1.000000" fill-rule="evenodd"/>
	<g opacity="0.000000"/>
</svg>
