<svg width="16.000000" height="16.000000" viewBox="0 0 16 16" fill="none" xmlns="http://www.w3.org/2000/svg" xmlns:xlink="http://www.w3.org/1999/xlink">
	<defs/>
	<g opacity="0.000000"/>
	<path id="Vector" d="M3.33 10C1.86 10 0.66 11.19 0.66 12.66C0.66 13.16 0.8 13.64 1.05 14.04C1.51 14.81 2.36 15.33 3.33 15.33C4.3 15.33 5.15 14.81 5.61 14.04C5.86 13.64 6 13.16 6 12.66C6 11.19 4.8 10 3.33 10ZM4.32 13.15L3.83 13.15L3.83 13.67C3.83 13.94 3.6 14.17 3.33 14.17C3.06 14.17 2.83 13.94 2.83 13.67L2.83 13.15L2.34 13.15C2.06 13.15 1.84 12.92 1.84 12.65C1.84 12.38 2.06 12.15 2.34 12.15L2.83 12.15L2.83 11.68C2.83 11.4 3.06 11.18 3.33 11.18C3.6 11.18 3.83 11.4 3.83 11.68L3.83 12.15L4.32 12.15C4.6 12.15 4.82 12.38 4.82 12.65C4.82 12.92 4.6 13.15 4.32 13.15Z" fill="#FFFFFF" fill-opacity="1.000000" fill-rule="nonzero"/>
	<path id="Vector" d="M14.33 8.33L12.66 8.33C11.93 8.33 11.33 8.93 11.33 9.66C11.33 10.4 11.93 11 12.66 11L14.33 11C14.52 11 14.66 10.85 14.66 10.66L14.66 8.66C14.66 8.47 14.52 8.33 14.33 8.33Z" fill="#FFFFFF" fill-opacity="1.000000" fill-rule="nonzero"/>
	<path id="Vector" d="M11.02 3.59C11.22 3.79 11.05 4.09 10.77 4.09L5.25 4.08C4.93 4.08 4.77 3.69 5 3.47L6.16 2.29C7.15 1.31 8.74 1.31 9.73 2.29L10.99 3.57C11 3.57 11.01 3.59 11.02 3.59Z" fill="#FFFFFF" fill-opacity="1.000000" fill-rule="nonzero"/>
	<path id="Vector" d="M14.58 12.43C14.17 13.81 13 14.66 11.4 14.66L7.06 14.66C6.8 14.66 6.64 14.38 6.74 14.14C6.94 13.67 7.07 13.14 7.07 12.66C7.07 10.64 5.42 9 3.4 9C2.9 9 2.4 9.1 1.95 9.3C1.7 9.41 1.4 9.24 1.4 8.97L1.4 8C1.4 6.18 2.5 4.91 4.19 4.7C4.36 4.67 4.54 4.66 4.73 4.66L11.4 4.66C11.57 4.66 11.74 4.67 11.9 4.69C13.24 4.85 14.22 5.67 14.58 6.89C14.64 7.11 14.48 7.33 14.26 7.33L12.73 7.33C11.28 7.33 10.14 8.65 10.45 10.15C10.67 11.24 11.68 12 12.8 12L14.26 12C14.49 12 14.64 12.22 14.58 12.43Z" fill="#FFFFFF" fill-opacity="1.000000" fill-rule="nonzero"/>
</svg>